<?xml version="1.0" encoding="UTF-8"?><svg id="falling-man_Image" xmlns="http://www.w3.org/2000/svg" viewBox="0 0 1849.07 2001.91"><defs><style>.cls-1{fill:red;}</style></defs><path d="M79.72,126.6c-2.32-4.36-4.28-8.98-7.03-13.05-12.57-18.59-25.45-36.97-37.99-55.58-2.48-3.68-5.36-7.97-5.58-12.11-.3-5.82,1.71-11.75,2.73-17.64,5.43,2.1,12.97,2.63,15.92,6.58,13.43,17.99,25.57,36.94,38.17,55.55,3.36,4.96,5.97,10.77,10.32,14.61,3.12,2.75,9.35,4.91,12.76,3.6,3.47-1.33,7.65-7.48,7.27-11.07-1.72-16.29-5.24-32.39-7.53-48.63-1.8-12.76-3.4-25.62-3.68-38.47-.08-3.63,4.51-10.1,7.43-10.38,3.61-.35,10.12,3.64,11.2,7.07,7.12,22.73,15.7,45.47,18.76,68.87,3.25,24.89,16.1,43.74,29.55,62.8,5.63,7.98,14.96,6.96,21.03,.47,8.05-8.6,14.5-18.72,21.38-28.37,8.6-12.04,15.84-25.33,25.95-35.9,4.08-4.26,14.21-3.2,21.59-3.2,.95,0,4.27,10.31,2.49,12.35-23.22,26.55-27.96,59.96-35.46,92.36-.79,3.39-.52,7.08-1.57,10.35-10.13,31.39,2.05,53.51,27.35,72.01,10.57,7.73,17.71,20,27.21,29.39,15.54,15.37,32.05,29.78,47.51,45.23,6.13,6.12,10.58,13.93,15.74,21,2.31,3.16,3.78,7.85,6.86,9.36,21.65,10.62,31.17,31.7,44.28,49.73,3.14,4.33,6.46,10.08,10.93,11.66,46.81,16.48,93.13,35.32,144.62,30.32,15.32-1.49,30.97-1.08,43.53,11.19,2.75,2.69,8.52,4.06,12.49,3.44,22.51-3.55,44.76-9.58,67.37-11.49,23.06-1.94,46.45-.19,69.69,.16,10.46,.16,21.02,1.87,31.34,.87,5.04-.49,9.63-5.56,14.42-8.56-2.64-3.7-6.29-7.05-7.73-11.17-4.51-12.91-8.19-26.11-13.22-42.57,11.81,1.62,18.87,2.59,26.53,3.65,.62-2.43,1.82-4.42,1.44-6.03-10.09-42.68-5.94-85.29-.29-128.04,6.83-51.64,34.92-71.38,87.62-71.88,14.25-.13,28.65,3.54,42.79,6.38,20.1,4.04,32.42,16.55,36.95,36.63,12.01,53.28,15.41,106.84,1.73,160.2-3.83,14.96,.33,20.24,14.4,22.01,5.47,.69,10.62,3.9,15.92,5.97,.22,1.57,.43,3.13,.65,4.7-15.8,6.76-31.6,13.52-47.39,20.28,.01,1.49,.02,2.98,.04,4.48,5.09,1.12,10.14,2.96,15.27,3.24,34.38,1.89,68.77,3.93,103.18,5,42,1.3,72.18,26.16,103.24,49.8,8.21,6.25,17.68,10.82,26.05,16.89,33.66,24.41,75.1,31.39,111.2,50.16,14.73,7.66,28.73,15.92,44.96,20.99,11.08,3.46,18.44,3.62,24.39-5.6,7.88-12.2,18.61-16.33,32.74-17.21,8.3-.52,16.36-5.92,24.38-9.46,5.88-2.6,11.25-7.42,17.3-8.38,23.26-3.69,42.78-15.33,63.33-25.67,16.58-8.34,35.72-11.61,53.74-17.06,2.82-.85,6.46-.51,8.5-2.2,12.88-10.69,27.23-20.37,37.38-33.3,5.89-7.5,5.52-20.37,6.71-30.96,.77-6.79-2.36-14.18-.95-20.7,6.41-29.53,13.6-58.89,20.99-88.19,2.77-11,9.64-8.63,15.36-2.61,11.45,12.04,8.99,26.67,6.38,41.1-2.66,14.73-4.24,28.79,11.45,38.37,7.64,4.66,12.76,3.81,19.94-1.64,28.41-21.54,46.77-49.91,60.82-82.13,3.51-8.04,12.59-13.64,19.11-20.37,.54,9.25,3.65,19.28,1.11,27.58-5.81,18.99-14.7,37.02-21.57,55.72-1.6,4.37-.16,9.85-.11,14.82,4.83-1.76,10.88-2.25,14.27-5.51,14.76-14.18,28.23-29.74,43.29-43.58,5.72-5.25,14.45-7.22,21.81-10.69,2.87,6.99,5.82,13.94,8.56,20.98,1.07,2.76,1.1,6.02,2.53,8.52,6.6,11.53,3.33,21.14-5.38,29.71-15.63,15.39-31.41,30.64-47.03,46.05-2.3,2.27-4.07,5.08-6.09,7.64,.51,1.5,1.01,3,1.52,4.5,8.08-1.51,16.29-2.51,24.19-4.69,8.13-2.24,15.79-6.3,23.97-8.14,2.88-.65,8.4,2.12,9.6,4.75,1.16,2.54-.57,8.59-2.96,10.18-8.67,5.76-17.76,11.34-27.43,15.06-18.16,6.97-38.05,10.29-55.03,19.28-31.2,16.51-60.89,35.91-90.96,54.49-3.02,1.87-6.26,6.51-6.16,9.76,.52,16.51-9.47,25.35-21.81,33.13-2.38,1.5-4.51,4.17-5.65,6.78-12.98,29.75-38.04,45.84-66.65,56.27-29.53,10.77-59.88,19.4-90.13,28.05-16.79,4.8-28.65,13.71-38.09,28.86-8.46,13.58-21.76,24.05-31.48,36.98-3.48,4.63-5.04,13.07-3.49,18.68,5.03,18.26,12.03,35.98,18.04,53.98,17.1,51.17,34.89,102.13,50.8,153.67,8.37,27.11,12.89,55.4,20.17,82.88,3.09,11.68,9.16,22.54,13.16,34.02,1.88,5.39,2.99,11.4,2.84,17.09-.63,24.3,8.69,30.83,31.38,21.58,14.77-6.02,29.32-12.8,44.5-17.52,58.71-18.25,103.27-.42,134.01,52.72,21.24,36.72,27.91,58.49-9.68,107.36-1.94,2.52-2.76,6.23-3.25,9.51-2.87,19.33-18.61,37.09-37.19,42.17-3.02,.83-6.84,2.65-8.16,5.14-14.24,26.86-29.26,32.72-57.66,21.9-15.26,21.07-45.31,25.18-66.16,9.26-2.18-1.67-5.61-3.14-8.12-2.71-16.63,2.79-33.48,5-49.63,9.61-15.97,4.55-27.62,13.84-31.31,32.53-1.5,7.58-10.53,15.55-18.12,19.62-12.38,6.64-26.04,11.9-39.78,14.74-27.13,5.61-54.41,12.05-82.47,3.33-25.73-7.99-52.25-13.4-70.51-36.35-9.58-12.04-14.19-24.04-7.85-38.62,11.14-25.6,21.81-51.44,34.03-76.53,14.89-30.59,28.02-60.89,14.74-95.78-1.85-4.87-1.25-10.93-.83-16.37,1.81-23.57-4-44.36-20.19-62.2-9.57-10.55-7.02-22.78-3.74-35.43,1.96-7.56,2.23-16.32,.55-23.94-5.28-23.89-11.6-47.55-18.02-71.17-4.16-15.32-8.77-16.42-19.65-4.61-33.85,36.73-66.78,74.33-101.29,110.42-46.21,48.34-99.57,85.63-168.17,92.61-25.51,2.6-51.76-.75-77.56-2.81-28.31-2.25-56.64-5.15-84.68-9.57-37.54-5.92-70.24-21.42-94.61-52.23-12.16-15.38-26.59-27.08-47.36-31.63-17.19-3.77-33.13-13.26-51.45-20.98-9.96,24.24-20.32,48.03-20.83,75.12-1.4,74.1-9.11,147.42-30.47,218.72-8.45,28.22-17.98,56.14-27.8,83.92-4.27,12.1-2.79,20.14,8.19,28.35,5.36,4.01,9.38,14.42,8.52,21.24-1.99,15.72-7.24,31.04-11.39,46.46-.9,3.34-1.84,7.66-4.28,9.42-17.42,12.58-15.86,30.75-15.37,48.79,.08,2.95,.16,6.47-1.27,8.8-12.23,19.91,.54,35.36,7.45,52.88,13.43,34.07,25.71,68.76,35.6,104,4.29,15.31-8.55,26.44-20.73,35.34-5.51,4.02-10.5,8.76-15.65,13.26-2.22,1.95-4.51,6.11-6.33,5.87-16.16-2.07-22.03,10.69-30.22,20.11-8.85,10.18-18.69,9.16-29.72,3.65-9.48-4.74-18.99-12.88-30.4-4.1-11.65,8.97-12.82,22.13-9.26,34.1,4.78,16.07-.65,30.1-6.5,43.23-3.41,7.65-13.98,12.12-22.66,16.6-8.95,23.15-20.68,31.48-46.11,30.73-2.99-.09-7.16,1.5-8.9,3.76-14.94,19.38-35.89,15.61-56.13,15.66-6.16,.02-12.42,2.23-18.42,4.11-3.21,1-5.96,4.96-8.94,4.98-25.89,.16-51.85,.65-77.66-1-9.67-.62-15.81-8-11.04-19.73,1.82-4.47,1.91-9.77,2.19-14.72,2.66-46.43,21.08-84.04,54.41-117.7,19.58-19.77,30.94-48.33,43.56-74.13,10.49-21.45,16.04-45.29,26.28-66.89,11.3-23.83,10.58-46.68,3.56-71.22-2.95-10.3-.44-22.15-.48-33.3-.03-6.9,.46-13.89-.44-20.69-4.06-30.72,1.95-56.91,31.71-72.7,11.43-6.06,11.65-16.82,8.51-26.06-11.74-34.57-6.8-69.02-1.96-103.72,3.72-26.64,4.72-53.83,10.6-79.95,9.41-41.81,20.73-83.29,33.28-124.28,21.15-69.06,34.37-139.46,40.35-211.34,1.66-20,4.07-39.73,16.19-56.89,2.4-3.4,2.75-8.38,3.61-12.71,4.78-24.22,18.6-41.92,42.27-47.71,29.99-7.33,60.66-13.09,91.37-15.81,16.25-1.44,33.4,4.16,49.77,8.12,16.96,4.1,33.35,10.47,50.2,15.07,14.46,3.94,21.23,.25,20.76-14.31-.85-26.79-4.34-53.51-6.71-80.25-.52-5.89-2.19-11.99-1.28-17.66,4.97-31.1-1.23-46.67-29.51-60.57-19.55-9.61-40.73-15.99-61.34-23.35-52.66-18.82-105.12-38.3-158.29-55.6-21.15-6.88-43.84-9.49-66.05-12.47-10.62-1.43-17.42-5.25-22.21-14.71-18.59-36.71-40.12-71.06-71.97-98.45-10.88-9.35-17.41-23.72-26.14-35.64-2.28-3.11-4.91-6.57-8.21-8.25-29.22-14.96-42.57-40.47-49.74-71.06-3.24-13.84-10.03-26.81-14.08-40.5-2.97-10.05-3.91-20.69-6.11-30.99-.88-4.12-1.74-8.85-4.28-11.9-15.63-18.81-30.58-38.41-48.06-55.38-12.63-12.26-28.51-21.33-43.5-30.95-14.67-9.41-30.36-17.25-44.9-26.82-3.51-2.31-4.29-8.77-6.32-13.32,4.49-.26,9.3-1.68,13.41-.55,13.13,3.62,25.99,8.2,38.95,12.41,1.01-1.14,2.03-2.28,3.04-3.42-9.13-15.06-18.24-30.14-27.4-45.18-7.74-12.71-16.12-25.08-23.02-38.22-2.6-4.95-2.67-11.69-2.44-17.55,.38-9.43,6.17-11.55,12.91-5.79,5.97,5.1,10.85,11.67,15.44,18.14,9.53,13.44,18.19,27.51,27.95,40.78,4.69,6.38,11.07,11.52,16.69,17.23,1.39-1.13,2.79-2.27,4.18-3.4Zm1010.52,600.33c.09,1.23-.48,4.12,.6,6.12,9.14,16.96,18.33,33.9,28.39,50.31,.86,1.41,9.59,.44,12.14-2.03,13.19-12.8,26.09-25.98,38.02-39.95,8.97-10.5,6.33-14.94-6.82-17.53-17.97-3.53-35.9-7.56-53.52-12.53-14.59-4.12-18.87-1.48-18.81,15.6Z"/><path class="cls-1" d="M79.72,126.6c-2.32-4.36-4.28-8.98-7.03-13.05-12.57-18.59-25.45-36.97-37.99-55.58-2.48-3.68-5.36-7.97-5.58-12.11-.3-5.82,1.71-11.75,2.73-17.64,5.43,2.1,12.97,2.63,15.92,6.58,13.43,17.99,25.57,36.94,38.17,55.55,3.36,4.96,5.97,10.77,10.32,14.61,3.12,2.75,9.35,4.91,12.76,3.6,3.47-1.33,7.65-7.48,7.27-11.07-1.72-16.29-5.24-32.39-7.53-48.63-1.8-12.76-3.4-25.62-3.68-38.47-.08-3.63,4.51-10.1,7.43-10.38,3.61-.35,10.12,3.64,11.2,7.07,7.12,22.73,15.7,45.47,18.76,68.87,3.25,24.89,16.1,43.74,29.55,62.8,5.63,7.98,14.96,6.96,21.03,.47,8.05-8.6,14.5-18.72,21.38-28.37,8.6-12.04,15.84-25.33,25.95-35.9,4.08-4.26,14.21-3.2,21.59-3.2,.95,0,4.27,10.31,2.49,12.35-23.22,26.55-27.96,59.96-35.46,92.36-.79,3.39-.52,7.08-1.57,10.35-10.13,31.39,2.05,53.51,27.35,72.01,10.57,7.73,17.71,20,27.21,29.39,15.54,15.37,32.05,29.78,47.51,45.23,6.13,6.12,10.58,13.93,15.74,21,2.31,3.16,3.78,7.85,6.86,9.36,21.65,10.62,31.17,31.7,44.28,49.73,3.14,4.33,6.46,10.08,10.93,11.66,46.81,16.48,93.13,35.32,144.62,30.32,15.32-1.49,30.97-1.08,43.53,11.19,2.75,2.69,8.52,4.06,12.49,3.44,22.51-3.55,44.76-9.58,67.37-11.49,23.06-1.94,46.45-.19,69.69,.16,10.46,.16,21.02,1.87,31.34,.87,5.04-.49,9.63-5.56,14.42-8.56-2.64-3.7-6.29-7.05-7.73-11.17-4.51-12.91-8.19-26.11-13.22-42.57,11.81,1.62,18.87,2.59,26.53,3.65,.62-2.43,1.82-4.42,1.44-6.03-10.09-42.68-5.94-85.29-.29-128.04,6.83-51.64,34.92-71.38,87.62-71.88,14.25-.13,28.65,3.54,42.79,6.38,20.1,4.04,32.42,16.55,36.95,36.63,12.01,53.28,15.41,106.84,1.73,160.2-3.83,14.96,.33,20.24,14.4,22.01,5.47,.69,10.62,3.9,15.92,5.97,.22,1.57,.43,3.13,.65,4.7-15.8,6.76-31.6,13.52-47.39,20.28,.01,1.49,.02,2.98,.04,4.48,5.09,1.12,10.14,2.96,15.27,3.24,34.38,1.89,68.77,3.93,103.18,5,42,1.3,72.18,26.16,103.24,49.8,8.21,6.25,17.68,10.82,26.05,16.89,33.66,24.41,75.1,31.39,111.2,50.16,14.73,7.66,28.73,15.92,44.96,20.99,11.08,3.46,18.44,3.62,24.39-5.6,7.88-12.2,18.61-16.33,32.74-17.21,8.3-.52,16.36-5.92,24.38-9.46,5.88-2.6,11.25-7.42,17.3-8.38,23.26-3.69,42.78-15.33,63.33-25.67,16.58-8.34,35.72-11.61,53.74-17.06,2.82-.85,6.46-.51,8.5-2.2,12.88-10.69,27.23-20.37,37.38-33.3,5.89-7.5,5.52-20.37,6.71-30.96,.77-6.79-2.36-14.18-.95-20.7,6.41-29.53,13.6-58.89,20.99-88.19,2.77-11,9.64-8.63,15.36-2.61,11.45,12.04,8.99,26.67,6.38,41.1-2.66,14.73-4.24,28.79,11.45,38.37,7.64,4.66,12.76,3.81,19.94-1.64,28.41-21.54,46.77-49.91,60.82-82.13,3.51-8.04,12.59-13.64,19.11-20.37,.54,9.25,3.65,19.28,1.11,27.58-5.81,18.99-14.7,37.02-21.57,55.72-1.6,4.37-.16,9.85-.11,14.82,4.83-1.76,10.88-2.25,14.27-5.51,14.76-14.18,28.23-29.74,43.29-43.58,5.72-5.25,14.45-7.22,21.81-10.69,2.87,6.99,5.82,13.94,8.56,20.98,1.07,2.76,1.1,6.02,2.53,8.52,6.6,11.53,3.33,21.14-5.38,29.71-15.63,15.39-31.41,30.64-47.03,46.05-2.3,2.27-4.07,5.08-6.09,7.64,.51,1.5,1.01,3,1.52,4.5,8.08-1.51,16.29-2.51,24.19-4.69,8.13-2.24,15.79-6.3,23.97-8.14,2.88-.65,8.4,2.12,9.6,4.75,1.16,2.54-.57,8.59-2.96,10.18-8.67,5.76-17.76,11.34-27.43,15.06-18.16,6.97-38.05,10.29-55.03,19.28-31.2,16.51-60.89,35.91-90.96,54.49-3.02,1.87-6.26,6.51-6.16,9.76,.52,16.51-9.47,25.35-21.81,33.13-2.38,1.5-4.51,4.17-5.65,6.78-12.98,29.75-38.04,45.84-66.65,56.27-29.53,10.77-59.88,19.4-90.13,28.05-16.79,4.8-28.65,13.71-38.09,28.86-8.46,13.58-21.76,24.05-31.48,36.98-3.48,4.63-5.04,13.07-3.49,18.68,5.03,18.26,12.03,35.98,18.04,53.98,17.1,51.17,34.89,102.13,50.8,153.67,8.37,27.11,12.89,55.4,20.17,82.88,3.09,11.68,9.16,22.54,13.16,34.02,1.88,5.39,2.99,11.4,2.84,17.09-.63,24.3,8.69,30.83,31.38,21.58,14.77-6.02,29.32-12.8,44.5-17.52,58.71-18.25,103.27-.42,134.01,52.72,21.24,36.72,27.91,58.49-9.68,107.36-1.94,2.52-2.76,6.23-3.25,9.51-2.87,19.33-18.61,37.09-37.19,42.17-3.02,.83-6.84,2.65-8.16,5.14-14.24,26.86-29.26,32.72-57.66,21.9-15.26,21.07-45.31,25.18-66.16,9.26-2.18-1.67-5.61-3.14-8.12-2.71-16.63,2.79-33.48,5-49.63,9.61-15.97,4.55-27.62,13.84-31.31,32.53-1.5,7.58-10.53,15.55-18.12,19.62-12.38,6.64-26.04,11.9-39.78,14.74-27.13,5.61-54.41,12.05-82.47,3.33-25.73-7.99-52.25-13.4-70.51-36.35-9.58-12.04-14.19-24.04-7.85-38.62,11.14-25.6,21.81-51.44,34.03-76.53,14.89-30.59,28.02-60.89,14.74-95.78-1.85-4.87-1.25-10.93-.83-16.37,1.81-23.57-4-44.36-20.19-62.2-9.57-10.55-7.02-22.78-3.74-35.43,1.96-7.56,2.23-16.32,.55-23.94-5.28-23.89-11.6-47.55-18.02-71.17-4.16-15.32-8.77-16.42-19.65-4.61-33.85,36.73-66.78,74.33-101.29,110.42-46.21,48.34-99.57,85.63-168.17,92.61-25.51,2.6-51.76-.75-77.56-2.81-28.31-2.25-56.64-5.15-84.68-9.57-37.54-5.92-70.24-21.42-94.61-52.23-12.16-15.38-26.59-27.08-47.36-31.63-17.19-3.77-33.13-13.26-51.45-20.98-9.96,24.24-20.32,48.03-20.83,75.12-1.4,74.1-9.11,147.42-30.47,218.72-8.45,28.22-17.98,56.14-27.8,83.92-4.27,12.1-2.79,20.14,8.19,28.35,5.36,4.01,9.38,14.42,8.52,21.24-1.99,15.72-7.24,31.04-11.39,46.46-.9,3.34-1.84,7.66-4.28,9.42-17.42,12.58-15.86,30.75-15.37,48.79,.08,2.95,.16,6.47-1.27,8.8-12.23,19.91,.54,35.36,7.45,52.88,13.43,34.07,25.71,68.76,35.6,104,4.29,15.31-8.55,26.44-20.73,35.34-5.51,4.02-10.5,8.76-15.65,13.26-2.22,1.95-4.51,6.11-6.33,5.87-16.16-2.07-22.03,10.69-30.22,20.11-8.85,10.18-18.69,9.16-29.72,3.65-9.48-4.74-18.99-12.88-30.4-4.1-11.65,8.97-12.82,22.13-9.26,34.1,4.78,16.07-.65,30.1-6.5,43.23-3.41,7.65-13.98,12.12-22.66,16.6-8.95,23.15-20.68,31.48-46.11,30.73-2.99-.09-7.16,1.5-8.9,3.76-14.94,19.38-35.89,15.61-56.13,15.66-6.16,.02-12.42,2.23-18.42,4.11-3.21,1-5.96,4.96-8.94,4.98-25.89,.16-51.85,.65-77.66-1-9.67-.62-15.81-8-11.04-19.73,1.82-4.47,1.91-9.77,2.19-14.72,2.66-46.43,21.08-84.04,54.41-117.7,19.58-19.77,30.94-48.33,43.56-74.13,10.49-21.45,16.04-45.29,26.28-66.89,11.3-23.83,10.58-46.68,3.56-71.22-2.95-10.3-.44-22.15-.48-33.3-.03-6.9,.46-13.89-.44-20.69-4.06-30.72,1.95-56.91,31.71-72.7,11.43-6.06,11.65-16.82,8.51-26.06-11.74-34.57-6.8-69.02-1.96-103.72,3.72-26.64,4.72-53.83,10.6-79.95,9.41-41.81,20.73-83.29,33.28-124.28,21.15-69.06,34.37-139.46,40.35-211.34,1.66-20,4.07-39.73,16.19-56.89,2.4-3.4,2.75-8.38,3.61-12.71,4.78-24.22,18.6-41.92,42.27-47.71,29.99-7.33,60.66-13.09,91.37-15.81,16.25-1.44,33.4,4.16,49.77,8.12,16.96,4.1,33.35,10.47,50.2,15.07,14.46,3.94,21.23,.25,20.76-14.31-.85-26.79-4.34-53.51-6.71-80.25-.52-5.89-2.19-11.99-1.28-17.66,4.97-31.1-1.23-46.67-29.51-60.57-19.55-9.61-40.73-15.99-61.34-23.35-52.66-18.82-105.12-38.3-158.29-55.6-21.15-6.88-43.84-9.49-66.05-12.47-10.62-1.43-17.42-5.25-22.21-14.71-18.59-36.71-40.12-71.06-71.97-98.45-10.88-9.35-17.41-23.72-26.14-35.64-2.28-3.11-4.91-6.57-8.21-8.25-29.22-14.96-42.57-40.47-49.74-71.06-3.24-13.84-10.03-26.81-14.08-40.5-2.97-10.05-3.91-20.69-6.11-30.99-.88-4.12-1.74-8.85-4.28-11.9-15.63-18.81-30.58-38.41-48.06-55.38-12.63-12.26-28.51-21.33-43.5-30.95-14.67-9.41-30.36-17.25-44.9-26.82-3.51-2.31-4.29-8.77-6.32-13.32,4.49-.26,9.3-1.68,13.41-.55,13.13,3.62,25.99,8.2,38.95,12.41,1.01-1.14,2.03-2.28,3.04-3.42-9.13-15.06-18.24-30.14-27.4-45.18-7.74-12.71-16.12-25.08-23.02-38.22-2.6-4.95-2.67-11.69-2.44-17.55,.38-9.43,6.17-11.55,12.91-5.79,5.97,5.1,10.85,11.67,15.44,18.14,9.53,13.44,18.19,27.51,27.95,40.78,4.69,6.38,11.07,11.52,16.69,17.23,1.39-1.13,2.79-2.27,4.18-3.4Zm1010.52,600.33c.09,1.23-.48,4.12,.6,6.12,9.14,16.96,18.33,33.9,28.39,50.31,.86,1.41,9.59,.44,12.14-2.03,13.19-12.8,26.09-25.98,38.02-39.95,8.97-10.5,6.33-14.94-6.82-17.53-17.97-3.53-35.9-7.56-53.52-12.53-14.59-4.12-18.87-1.48-18.81,15.6Z"/></svg>